<svg xmlns="http://www.w3.org/2000/svg" width="1600" height="260" viewBox="0 0 1600 260" role="img" aria-hidden="true">
<rect width="1600" height="260" fill="#080809"/>
<line x1="0" y1="108" x2="1600" y2="108" stroke="#9d7846" stroke-width="1"/>
<path d="M80,260 C280,210 420,150 560,112" fill="none" stroke="#3f3b36" stroke-width="0.70" stroke-opacity="0.35" stroke-linecap="round"/>
<path d="M220,260 C360,200 520,140 680,114" fill="none" stroke="#5a5248" stroke-width="0.60" stroke-opacity="0.28" stroke-linecap="round"/>
<path d="M410,260 C500,190 620,145 760,116" fill="none" stroke="#3f3b36" stroke-width="0.55" stroke-opacity="0.22" stroke-linecap="round"/>
<path d="M980,260 C860,200 740,145 640,114" fill="none" stroke="#5a5248" stroke-width="0.60" stroke-opacity="0.28" stroke-linecap="round"/>
<path d="M1180,260 C1040,205 900,148 780,113" fill="none" stroke="#3f3b36" stroke-width="0.65" stroke-opacity="0.32" stroke-linecap="round"/>
<path d="M1420,260 C1260,210 1080,150 920,115" fill="none" stroke="#5a5248" stroke-width="0.55" stroke-opacity="0.22" stroke-linecap="round"/>
<path d="M40,230 C200,180 380,140 530,118" fill="none" stroke="#5a5248" stroke-width="0.50" stroke-opacity="0.18" stroke-linecap="round"/>
<path d="M1560,240 C1380,185 1180,142 980,118" fill="none" stroke="#3f3b36" stroke-width="0.50" stroke-opacity="0.18" stroke-linecap="round"/>
<path d="M300,258 C480,220 700,170 820,130" fill="none" stroke="#3f3b36" stroke-width="0.45" stroke-opacity="0.15" stroke-linecap="round"/>
<path d="M1300,258 C1120,220 900,168 780,128" fill="none" stroke="#5a5248" stroke-width="0.45" stroke-opacity="0.15" stroke-linecap="round"/>
</svg>
